<mxfile host="app.diagrams.net" modified="2020-12-26T23:18:47.430Z" agent="5.0 (Windows)" etag="hB6Z5nymaIaqHDnTL0kO" version="14.1.2" type="github">
  <diagram id="B1b2-litNjeocKd0ld5g" name="Planlama">
    <mxGraphModel dx="942" dy="593" grid="1" gridSize="10" guides="1" tooltips="1" connect="1" arrows="1" fold="1" page="1" pageScale="1" pageWidth="827" pageHeight="1169" math="0" shadow="0">
      <root>
        <mxCell id="0" />
        <mxCell id="1" parent="0" />
        <mxCell id="LADKeKZNyARkBL02Adeu-2" style="edgeStyle=orthogonalEdgeStyle;rounded=0;orthogonalLoop=1;jettySize=auto;html=1;" edge="1" parent="1" source="LADKeKZNyARkBL02Adeu-1">
          <mxGeometry relative="1" as="geometry">
            <mxPoint x="570" y="80" as="targetPoint" />
          </mxGeometry>
        </mxCell>
        <mxCell id="LADKeKZNyARkBL02Adeu-9" style="edgeStyle=orthogonalEdgeStyle;rounded=0;orthogonalLoop=1;jettySize=auto;html=1;fontFamily=Tahoma;fontSize=16;" edge="1" parent="1" source="LADKeKZNyARkBL02Adeu-1">
          <mxGeometry relative="1" as="geometry">
            <mxPoint x="414" y="180" as="targetPoint" />
          </mxGeometry>
        </mxCell>
        <mxCell id="LADKeKZNyARkBL02Adeu-10" style="edgeStyle=orthogonalEdgeStyle;rounded=0;orthogonalLoop=1;jettySize=auto;html=1;exitX=0.25;exitY=1;exitDx=0;exitDy=0;fontFamily=Tahoma;fontSize=16;" edge="1" parent="1" source="LADKeKZNyARkBL02Adeu-1">
          <mxGeometry relative="1" as="geometry">
            <mxPoint x="260" y="180" as="targetPoint" />
          </mxGeometry>
        </mxCell>
        <mxCell id="LADKeKZNyARkBL02Adeu-11" style="edgeStyle=orthogonalEdgeStyle;rounded=0;orthogonalLoop=1;jettySize=auto;html=1;exitX=0.75;exitY=1;exitDx=0;exitDy=0;fontFamily=Tahoma;fontSize=16;" edge="1" parent="1" source="LADKeKZNyARkBL02Adeu-1">
          <mxGeometry relative="1" as="geometry">
            <mxPoint x="570" y="180" as="targetPoint" />
          </mxGeometry>
        </mxCell>
        <mxCell id="LADKeKZNyARkBL02Adeu-1" value="&lt;div style=&quot;font-size: 16px;&quot;&gt;VOIR MUSIC&lt;/div&gt;&lt;div style=&quot;font-size: 16px;&quot;&gt;&lt;br style=&quot;font-size: 16px;&quot;&gt;&lt;/div&gt;" style="rounded=0;whiteSpace=wrap;html=1;fontStyle=1;fontFamily=Tahoma;fontSize=16;verticalAlign=bottom;" vertex="1" parent="1">
          <mxGeometry x="354" y="50" width="120" height="60" as="geometry" />
        </mxCell>
        <mxCell id="LADKeKZNyARkBL02Adeu-5" style="edgeStyle=orthogonalEdgeStyle;rounded=0;orthogonalLoop=1;jettySize=auto;html=1;" edge="1" parent="1" source="LADKeKZNyARkBL02Adeu-3">
          <mxGeometry relative="1" as="geometry">
            <mxPoint x="720" y="130" as="targetPoint" />
          </mxGeometry>
        </mxCell>
        <mxCell id="LADKeKZNyARkBL02Adeu-3" value="Voir music bir label ve prodüksiyon ve eğitim şirketidir. " style="text;html=1;strokeColor=none;fillColor=none;align=center;verticalAlign=middle;whiteSpace=wrap;rounded=0;" vertex="1" parent="1">
          <mxGeometry x="590" y="50" width="190" height="60" as="geometry" />
        </mxCell>
        <mxCell id="LADKeKZNyARkBL02Adeu-4" value="&lt;div&gt;Ana voirmusic.com domaini altında sadece yayınlanan parçalar, ve beat satışı olmalı.&lt;/div&gt;&lt;div&gt;&lt;br&gt;&lt;/div&gt;" style="shape=process;whiteSpace=wrap;html=1;backgroundOutline=1;" vertex="1" parent="1">
          <mxGeometry x="740" y="110" width="205" height="60" as="geometry" />
        </mxCell>
        <mxCell id="LADKeKZNyARkBL02Adeu-19" style="edgeStyle=orthogonalEdgeStyle;rounded=0;orthogonalLoop=1;jettySize=auto;html=1;fontFamily=Tahoma;fontSize=16;" edge="1" parent="1" source="LADKeKZNyARkBL02Adeu-12" target="LADKeKZNyARkBL02Adeu-20">
          <mxGeometry relative="1" as="geometry">
            <mxPoint x="260" y="280" as="targetPoint" />
          </mxGeometry>
        </mxCell>
        <mxCell id="LADKeKZNyARkBL02Adeu-12" value="&lt;div&gt;beats.voir.com&lt;/div&gt;" style="rounded=0;whiteSpace=wrap;html=1;fontFamily=Tahoma;fontSize=16;" vertex="1" parent="1">
          <mxGeometry x="180" y="190" width="160" height="40" as="geometry" />
        </mxCell>
        <mxCell id="LADKeKZNyARkBL02Adeu-15" style="edgeStyle=orthogonalEdgeStyle;rounded=0;orthogonalLoop=1;jettySize=auto;html=1;fontFamily=Tahoma;fontSize=16;" edge="1" parent="1" source="LADKeKZNyARkBL02Adeu-13" target="LADKeKZNyARkBL02Adeu-16">
          <mxGeometry relative="1" as="geometry">
            <mxPoint x="420" y="270" as="targetPoint" />
          </mxGeometry>
        </mxCell>
        <mxCell id="LADKeKZNyARkBL02Adeu-13" value="blog.voir.com" style="rounded=0;whiteSpace=wrap;html=1;fontFamily=Tahoma;fontSize=16;" vertex="1" parent="1">
          <mxGeometry x="340" y="190" width="160" height="40" as="geometry" />
        </mxCell>
        <mxCell id="LADKeKZNyARkBL02Adeu-17" style="edgeStyle=orthogonalEdgeStyle;rounded=0;orthogonalLoop=1;jettySize=auto;html=1;fontFamily=Tahoma;fontSize=16;" edge="1" parent="1" source="LADKeKZNyARkBL02Adeu-14" target="LADKeKZNyARkBL02Adeu-18">
          <mxGeometry relative="1" as="geometry">
            <mxPoint x="580" y="290" as="targetPoint" />
          </mxGeometry>
        </mxCell>
        <mxCell id="LADKeKZNyARkBL02Adeu-14" value="sosyal.voir.com" style="rounded=0;whiteSpace=wrap;html=1;fontFamily=Tahoma;fontSize=16;" vertex="1" parent="1">
          <mxGeometry x="500" y="190" width="160" height="40" as="geometry" />
        </mxCell>
        <mxCell id="LADKeKZNyARkBL02Adeu-16" value="&lt;div&gt;Ana içerik live ile ilgili onedio benzeri 10 adım tipi &lt;br&gt;&lt;/div&gt;&lt;div&gt;eğitim açıklamaları ve plugin tanıtımları içermeli.&lt;/div&gt;&lt;div&gt;&lt;br&gt;&lt;/div&gt;" style="whiteSpace=wrap;html=1;aspect=fixed;" vertex="1" parent="1">
          <mxGeometry x="360" y="290" width="120" height="120" as="geometry" />
        </mxCell>
        <mxCell id="LADKeKZNyARkBL02Adeu-18" value="&lt;div&gt;Technopat benzeri bir sosyal paylaşım platformu olmalı.&lt;/div&gt;" style="whiteSpace=wrap;html=1;aspect=fixed;" vertex="1" parent="1">
          <mxGeometry x="520" y="290" width="120" height="120" as="geometry" />
        </mxCell>
        <mxCell id="LADKeKZNyARkBL02Adeu-20" value="&lt;div&gt;Beatlerin ve &lt;br&gt;&lt;/div&gt;&lt;div&gt;Sample paketlerinin satışının olduğu bölüm&lt;/div&gt;" style="whiteSpace=wrap;html=1;aspect=fixed;" vertex="1" parent="1">
          <mxGeometry x="200" y="290" width="120" height="120" as="geometry" />
        </mxCell>
      </root>
    </mxGraphModel>
  </diagram>
</mxfile>
